<?xml version="1.0" encoding="UTF-8" standalone="no"?>
<svg
   xmlns:dc="http://purl.org/dc/elements/1.1/"
   xmlns:cc="http://creativecommons.org/ns#"
   xmlns:rdf="http://www.w3.org/1999/02/22-rdf-syntax-ns#"
   xmlns:svg="http://www.w3.org/2000/svg"
   xmlns="http://www.w3.org/2000/svg"
   xmlns:sodipodi="http://sodipodi.sourceforge.net/DTD/sodipodi-0.dtd"
   xmlns:inkscape="http://www.inkscape.org/namespaces/inkscape"
   width="210mm"
   height="297mm"
   viewBox="0 0 210 297"
   version="1.1"
   id="svg8"
   inkscape:version="1.0 (4035a4fb49, 2020-05-01)"
   sodipodi:docname="sil_2.svg">
  <defs
     id="defs2" />
  <sodipodi:namedview
     id="base"
     pagecolor="#ffffff"
     bordercolor="#666666"
     borderopacity="1.0"
     inkscape:pageopacity="0.0"
     inkscape:pageshadow="2"
     inkscape:zoom="0.44081747"
     inkscape:cx="-142.31746"
     inkscape:cy="172.61136"
     inkscape:document-units="mm"
     inkscape:current-layer="layer1"
     inkscape:document-rotation="0"
     showgrid="false"
     inkscape:window-width="1600"
     inkscape:window-height="838"
     inkscape:window-x="-6"
     inkscape:window-y="-6"
     inkscape:window-maximized="1" />
  <metadata
     id="metadata5">
    <rdf:RDF>
      <cc:Work
         rdf:about="">
        <dc:format>image/svg+xml</dc:format>
        <dc:type
           rdf:resource="http://purl.org/dc/dcmitype/StillImage" />
        <dc:title />
      </cc:Work>
    </rdf:RDF>
  </metadata>
  <g
     inkscape:label="Layer 1"
     inkscape:groupmode="layer"
     id="layer1">
    <g
       inkscape:export-ydpi="124.9254"
       inkscape:export-xdpi="124.9254"
       style="fill:#000000;fill-opacity:1"
       id="g969"
       transform="matrix(0.35512442,0,0,0.35512442,6.1819019,-29.88636)">
      <rect
         y="-77.251106"
         x="-68.111961"
         height="458.02844"
         width="458.02844"
         id="rect959"
         style="fill:#000000;fill-opacity:1;stroke-width:1.77056;stroke-linecap:round;stroke-linejoin:round" />
    </g>
    <path
       inkscape:export-ydpi="124.9254"
       inkscape:export-xdpi="124.9254"
       sodipodi:nodetypes="sccccss"
       d="M 3.1834526,0.38695551 H 44.01534 c 0,3.54208429 -0.120035,5.93597599 0,9.91075149 H -3.0408047e-7 c 0,-3.8263027 -0.00622057592,-3.7215892 -0.00622057592,-6.7210839 0,-1.7670759 1.42258998,-3.18966759 3.18966728,-3.18966759 z"
       style="fill:#ffffff;fill-opacity:1;stroke:none;stroke-width:0.148444;stroke-linecap:round;stroke-linejoin:round;stroke-opacity:1"
       id="rect850" />
    <path
       inkscape:export-ydpi="124.9254"
       inkscape:export-xdpi="124.9254"
       id="rect850-3"
       style="fill:#ffffff;fill-opacity:1;stroke:none;stroke-width:0.482042;stroke-linecap:round;stroke-linejoin:round;stroke-opacity:1"
       d="M -48.621389,133.95776 V 96.938821 c 11.50217,0 19.27583,0.38979 32.18307,0 v 47.356519 c -12.42511,0 -12.08507,0.0202 -21.8253,0.0202 -5.7382,0 -10.35777,-4.61955 -10.35777,-10.35776 z"
       sodipodi:nodetypes="sccccss"
       transform="matrix(0.30794923,0,0,0.30794923,14.972919,-17.32501)" />
    <path
       inkscape:export-ydpi="124.9254"
       inkscape:export-xdpi="124.9254"
       id="rect850-8"
       style="fill:#ffffff;fill-opacity:1;stroke:none;stroke-width:0.482042;stroke-linecap:round;stroke-linejoin:round;stroke-opacity:1"
       d="m 83.779961,112.11228 h -107.62666 c 0,11.50217 0.38979,19.27582 0,32.18306 h 117.96425 c 0,-12.4251 0.0202,-12.08507 0.0202,-21.82529 0,-5.73821 -4.61956,-10.35777 -10.35777,-10.35777 z"
       sodipodi:nodetypes="sccccss"
       transform="matrix(0.30794923,0,0,0.30794923,14.972919,-17.32501)" />
    <path
       inkscape:export-ydpi="124.9254"
       inkscape:export-xdpi="124.9254"
       sodipodi:nodetypes="sccccss"
       d="m 94.482771,189.39201 v -37.01894 c -11.50217,0 -19.27583,0.38979 -32.18307,0 v 47.35653 c 12.42511,0 12.08507,0.0202 21.8253,0.0202 5.7382,-1e-5 10.35777,-4.61957 10.35777,-10.35778 z"
       style="fill:#ffffff;fill-opacity:1;stroke:none;stroke-width:0.482042;stroke-linecap:round;stroke-linejoin:round;stroke-opacity:1"
       id="rect850-3-3"
       transform="matrix(0.30794923,0,0,0.30794923,14.972919,-17.32501)" />
    <path
       inkscape:export-ydpi="124.9254"
       inkscape:export-xdpi="124.9254"
       sodipodi:nodetypes="sccccss"
       d="m 62.828871,199.7296 h -110.66091 c 0,-11.50216 0.38979,-19.27582 0,-32.18307 h 120.9985 c 0,12.42511 0.0202,12.08508 0.0202,21.8253 0,5.73821 -4.61956,10.35777 -10.35777,10.35777 z"
       style="fill:#ffffff;fill-opacity:1;stroke:none;stroke-width:0.482042;stroke-linecap:round;stroke-linejoin:round;stroke-opacity:1"
       id="rect850-8-4"
       transform="matrix(0.30794923,0,0,0.30794923,14.972919,-17.32501)" />
    <path
       inkscape:export-ydpi="124.9254"
       inkscape:export-xdpi="124.9254"
       sodipodi:nodetypes="sccccss"
       d="m 261.28925,66.598625 0,92.980675 c 11.50216,0 19.27582,-0.38979 32.18306,0 l 0,-103.318265 c -12.42511,0 -12.08506,-0.0202 -21.82529,-0.0202 -5.7382,0 -10.35777,4.61956 -10.35777,10.35777 z"
       style="fill:#ffffff;fill-opacity:1;stroke:none;stroke-width:0.482042;stroke-linecap:round;stroke-linejoin:round;stroke-opacity:1"
       id="rect850-8-2"
       transform="matrix(0.30794923,0,0,0.30794923,14.972919,-17.32501)" />
    <path
       inkscape:export-ydpi="124.9254"
       inkscape:export-xdpi="124.9254"
       id="rect850-0"
       style="fill:#ffffff;fill-opacity:1;stroke:none;stroke-width:0.148444;stroke-linecap:round;stroke-linejoin:round;stroke-opacity:1"
       d="m 54.073029,5.2871186e-4 h 34.529676 c 0,3.54208468814 -0.120032,5.93597608814 0,9.91075228814 H 50.889577 c 0,-3.8263034 -0.0062,-3.7215896 -0.0062,-6.7210844 0,-1.7670761 1.42259,-3.18966788814 3.189667,-3.18966788814 z"
       sodipodi:nodetypes="sccccss" />
    <path
       inkscape:export-ydpi="124.9254"
       inkscape:export-xdpi="124.9254"
       sodipodi:nodetypes="sccccss"
       d="m 271.83161,199.72959 h 100.88767 c 0,-11.50217 -0.38978,-19.27583 0,-32.18307 H 261.49402 c 0,12.42511 -0.0202,12.08507 -0.0202,21.8253 0,5.7382 4.61956,10.35777 10.35777,10.35777 z"
       style="fill:#ffffff;fill-opacity:1;stroke:none;stroke-width:0.482042;stroke-linecap:round;stroke-linejoin:round;stroke-opacity:1"
       id="rect850-0-4"
       transform="matrix(0.30794923,0,0,0.30794923,14.972919,-17.32501)" />
    <path
       inkscape:export-ydpi="124.9254"
       inkscape:export-xdpi="124.9254"
       sodipodi:nodetypes="sccccss"
       d="M 85.406808,43.980513 H 50.877132 c 0,-3.542085 0.120033,-5.935977 0,-9.910752 h 37.713132 c 0,3.826303 0.0062,3.721588 0.0062,6.721084 0,1.767075 -1.42259,3.189668 -3.189668,3.189668 z"
       style="fill:#ffffff;fill-opacity:1;stroke:none;stroke-width:0.148444;stroke-linecap:round;stroke-linejoin:round;stroke-opacity:1"
       id="rect850-0-0" />
    <path
       inkscape:export-ydpi="124.9254"
       inkscape:export-xdpi="124.9254"
       id="rect850-0-0-0"
       style="fill:#ffffff;fill-opacity:1;stroke:none;stroke-width:0.148444;stroke-linecap:round;stroke-linejoin:round;stroke-opacity:1"
       d="m 64.649717,34.008333 v -9.539882 c 3.542085,0 5.935978,0.120031 9.910752,0 v 12.723338 c -3.826302,0 -3.721588,0.0062 -6.721083,0.0062 -1.767075,0 -3.189669,-1.42259 -3.189669,-3.189668 z"
       sodipodi:nodetypes="sccccss" />
    <path
       inkscape:export-ydpi="124.9254"
       inkscape:export-xdpi="124.9254"
       sodipodi:nodetypes="sccccss"
       d="m 74.560469,17.060522 v 11.159245 c -3.542085,0 -5.935978,-0.120031 -9.910752,0 V 13.877066 c 3.826302,0 3.721588,-0.0062 6.721083,-0.0062 1.767075,0 3.189669,1.42259 3.189669,3.189668 z"
       style="fill:#ffffff;fill-opacity:1;stroke:none;stroke-width:0.148444;stroke-linecap:round;stroke-linejoin:round;stroke-opacity:1"
       id="rect850-0-0-0-5" />
  </g>
</svg>
